<?xml version="1.0" standalone="no"?>
<!DOCTYPE svg PUBLIC "-//W3C//DTD SVG 20010904//EN"
 "http://www.w3.org/TR/2001/REC-SVG-20010904/DTD/svg10.dtd">
<svg version="1.0" xmlns="http://www.w3.org/2000/svg"
 width="250" height="106" viewBox="0 0 994.000000 251.000000"
 preserveAspectRatio="xMidYMid meet">

<g transform="translate(0.000000,251.000000) scale(0.100000,-0.100000)"
fill="#000000" stroke="none">
<path d="M185 2485 c-76 -31 -135 -91 -163 -168 -27 -72 -28 -111 -1 -183 44
-117 140 -184 264 -184 161 0 274 113 275 276 0 123 -67 219 -184 263 -73 27
-117 26 -191 -4z"/>
<path d="M1455 2259 c-22 -4 -98 -8 -168 -8 -116 -1 -128 -3 -125 -18 2 -10
17 -20 36 -24 48 -10 70 -35 81 -93 6 -31 9 -271 8 -618 -2 -557 -2 -567 -23
-595 -13 -18 -35 -31 -62 -37 -23 -6 -42 -16 -42 -23 0 -10 48 -13 235 -13
194 0 235 2 235 14 0 8 -15 17 -35 20 -19 4 -43 18 -54 33 -19 24 -21 39 -20
202 0 188 3 211 23 211 30 0 69 -49 152 -188 48 -81 98 -160 111 -175 30 -37
29 -64 -2 -79 -14 -6 -25 -17 -25 -25 0 -10 28 -13 133 -13 72 0 162 -3 199
-6 60 -6 68 -5 75 11 4 13 1 22 -13 29 -44 25 -96 94 -228 302 -77 120 -150
232 -163 247 -12 16 -23 33 -23 39 0 13 165 192 208 225 20 15 61 37 91 49 95
39 76 45 -147 47 -168 2 -202 0 -200 -12 2 -8 25 -19 53 -26 116 -30 112 -101
-14 -224 -126 -122 -203 -170 -221 -140 -5 7 -9 209 -10 448 0 238 -3 438 -6
442 -3 5 -8 8 -12 8 -4 -1 -25 -5 -47 -10z"/>
<path d="M4475 2259 c-22 -4 -98 -8 -168 -8 -116 -1 -128 -3 -125 -18 2 -10
17 -20 36 -24 48 -10 70 -35 82 -93 7 -35 10 -241 8 -618 -3 -556 -3 -567 -24
-595 -13 -18 -35 -31 -62 -37 -23 -6 -42 -16 -42 -23 0 -10 47 -13 230 -13
192 0 230 2 230 14 0 8 -13 17 -30 21 -16 4 -39 18 -50 32 -19 25 -20 40 -20
342 0 296 2 319 21 361 23 52 62 95 103 117 38 20 116 22 149 4 55 -29 57 -47
57 -435 0 -239 -4 -363 -11 -379 -11 -25 -47 -47 -74 -47 -8 0 -15 -7 -15 -15
0 -13 32 -15 230 -15 181 0 230 3 230 13 0 7 -20 18 -45 25 -80 21 -79 16 -85
422 -6 394 -6 398 -73 457 -48 42 -104 56 -207 51 -111 -5 -191 -45 -244 -121
l-36 -51 -2 319 c-2 202 -7 319 -13 320 -5 2 -28 -1 -50 -6z"/>
<path d="M355 1787 c-22 -5 -100 -10 -172 -11 -119 -1 -133 -3 -133 -18 0 -13
8 -18 26 -18 37 0 61 -16 81 -53 16 -29 18 -67 18 -392 0 -412 1 -405 -80
-427 -25 -7 -45 -18 -45 -25 0 -10 50 -13 240 -13 185 0 240 3 240 13 0 6 -21
19 -48 27 -32 10 -51 23 -59 41 -9 19 -13 137 -13 452 -1 235 -4 428 -8 430
-4 2 -25 0 -47 -6z"/>
<path d="M3022 1786 c-64 -21 -120 -64 -150 -115 -22 -38 -26 -57 -26 -116 0
-119 33 -162 241 -323 142 -110 165 -135 182 -200 29 -106 -31 -182 -144 -182
-83 0 -129 28 -176 105 -32 54 -69 164 -69 208 0 10 -8 17 -18 17 -17 0 -20
-12 -25 -112 -4 -62 -7 -146 -7 -185 0 -69 1 -73 23 -73 16 0 26 9 34 30 14
38 28 38 101 0 145 -77 354 -52 448 52 101 112 97 264 -9 376 -18 19 -86 72
-152 119 -188 134 -225 177 -225 255 1 140 197 175 297 53 30 -36 47 -73 75
-164 30 -99 48 -38 48 162 0 88 -3 107 -15 107 -8 0 -21 -16 -29 -35 -8 -19
-21 -35 -29 -35 -8 0 -43 14 -78 32 -57 29 -75 33 -159 35 -61 2 -110 -2 -138
-11z"/>
<path d="M6144 1786 c-156 -39 -242 -134 -214 -235 19 -70 89 -104 164 -79
101 34 110 173 15 226 -16 10 -29 21 -29 25 0 18 87 47 145 47 118 0 157 -49
163 -208 7 -163 3 -167 -223 -246 -210 -73 -273 -129 -282 -251 -13 -154 79
-247 243 -247 94 1 153 26 216 93 l46 49 7 -32 c17 -80 63 -110 172 -110 59 0
84 5 128 27 50 24 65 42 50 57 -3 3 -22 -3 -42 -13 -32 -16 -40 -17 -57 -5
-20 13 -21 25 -27 362 -4 215 -11 363 -18 385 -18 59 -53 100 -111 133 -51 28
-61 30 -175 33 -74 1 -139 -3 -171 -11z m246 -591 l0 -184 -30 -35 c-44 -49
-109 -73 -160 -57 -111 33 -132 189 -39 295 22 25 78 68 124 96 47 28 87 55
90 61 4 5 8 9 11 9 2 0 4 -83 4 -185z"/>
<path d="M7670 1787 c-25 -5 -102 -10 -172 -10 -115 -2 -128 -4 -128 -19 0
-11 8 -18 20 -18 35 0 69 -22 85 -55 13 -28 15 -85 15 -359 0 -367 -6 -418
-50 -441 -16 -8 -40 -15 -55 -15 -19 0 -25 -5 -25 -23 l0 -23 238 1 c228 0
237 1 237 20 0 14 -10 22 -38 28 -69 17 -71 28 -72 382 l0 310 27 52 c33 63
78 98 140 112 59 14 113 -2 142 -42 20 -28 21 -38 19 -387 -1 -403 -2 -409
-66 -424 -29 -8 -37 -14 -37 -32 l0 -23 223 5 c122 3 228 7 235 9 23 8 12 22
-25 34 -82 27 -77 5 -85 349 -9 369 -16 439 -51 491 -40 61 -111 91 -214 91
-133 0 -232 -48 -278 -134 -11 -20 -23 -36 -27 -36 -4 0 -9 37 -10 83 l-3 83
-45 -9z"/>
<path d="M9320 1786 c-156 -46 -237 -132 -210 -225 23 -81 79 -113 157 -92
106 29 121 167 26 226 -18 11 -32 24 -33 28 0 18 87 47 145 47 71 0 115 -23
141 -72 23 -44 31 -231 12 -268 -20 -37 -69 -65 -176 -101 -253 -83 -322 -145
-322 -285 1 -145 87 -224 245 -224 99 0 148 21 213 89 l46 49 16 -46 c23 -70
62 -92 164 -92 59 0 92 6 121 20 58 27 66 35 60 52 -5 14 -10 13 -41 -2 -38
-20 -69 -17 -80 8 -5 10 -11 179 -14 378 l-5 361 -30 49 c-24 37 -45 56 -90
79 -55 28 -67 30 -179 32 -77 1 -138 -3 -166 -11z m250 -593 c0 -172 -1 -177
-25 -209 -34 -45 -106 -78 -150 -70 -49 10 -93 50 -106 99 -12 45 -5 117 16
157 19 37 91 101 156 138 30 17 64 40 73 51 10 11 23 18 27 15 5 -3 9 -84 9
-181z"/>
</g>
</svg>
